<?xml version="1.0" encoding="UTF-8"?>
<svg width="40px" height="40px" viewBox="0 0 40 40" version="1.1" xmlns="http://www.w3.org/2000/svg" xmlns:xlink="http://www.w3.org/1999/xlink">
    <!-- Generator: Sketch 42 (36781) - http://www.bohemiancoding.com/sketch -->
    <title>ico_rev_good</title>
    <desc>Created with Sketch.</desc>
    <defs></defs>
    <g id="App_sp" stroke="none" stroke-width="1" fill="none" fill-rule="evenodd">
        <g id="parts" transform="translate(-750.000000, -602.000000)">
            <g id="Page-1" transform="translate(750.000000, 602.000000)">
                <g id="Group-3" transform="translate(0.000000, 0.018333)" fill="#E86969">
                    <path d="M39.8510795,19.9908167 C39.8510795,30.9494833 30.9300753,39.8333167 19.9255565,39.8333167 C8.92103766,39.8333167 3.34728033e-05,30.9494833 3.34728033e-05,19.9908167 C3.34728033e-05,9.03215 8.92103766,0.148316667 19.9255565,0.148316667 C30.9300753,0.148316667 39.8510795,9.03215 39.8510795,19.9908167" id="Fill-1"></path>
                </g>
                <path d="M14.9269121,15.8460333 C14.9269121,17.1473667 13.8674979,18.2023667 12.5607197,18.2023667 C11.2539414,18.2023667 10.1945272,17.1473667 10.1945272,15.8460333 C10.1945272,14.5447 11.2539414,13.4897 12.5607197,13.4897 C13.8674979,13.4897 14.9269121,14.5447 14.9269121,15.8460333" id="Fill-4" fill="#FFFFFF"></path>
                <path d="M29.7637824,15.8460333 C29.7637824,17.1473667 28.7043682,18.2023667 27.39759,18.2023667 C26.0908117,18.2023667 25.0313975,17.1473667 25.0313975,15.8460333 C25.0313975,14.5447 26.0908117,13.4897 27.39759,13.4897 C28.7043682,13.4897 29.7637824,14.5447 29.7637824,15.8460333" id="Fill-6" fill="#FFFFFF"></path>
                <path d="M19.9255397,34.643 C12.4038661,34.643 8.83733891,29.7763333 7.38076987,26.8755 C7.01156485,26.1403333 7.31097908,25.2463333 8.04922176,24.879 C8.78746444,24.5115 9.68503766,24.8095 10.0540753,25.5443333 C11.2020251,27.8308333 14.0110628,31.6666667 19.9255397,31.6666667 C25.8400167,31.6666667 28.6490544,27.8308333 29.7971715,25.5443333 C30.1660418,24.8091667 31.0637824,24.5113333 31.8020251,24.879 C32.5402678,25.2463333 32.8395146,26.1403333 32.4701423,26.8755 C31.0137406,29.7763333 27.4472134,34.643 19.9255397,34.643" id="Fill-8" fill="#FFFFFF"></path>
            </g>
        </g>
    </g>
</svg>