<?xml version="1.0" encoding="UTF-8"?>
<svg width="40px" height="40px" viewBox="0 0 40 40" version="1.1" xmlns="http://www.w3.org/2000/svg" xmlns:xlink="http://www.w3.org/1999/xlink">
    <!-- Generator: Sketch 42 (36781) - http://www.bohemiancoding.com/sketch -->
    <title>ico_rev_bad</title>
    <desc>Created with Sketch.</desc>
    <defs></defs>
    <g id="App_sp" stroke="none" stroke-width="1" fill="none" fill-rule="evenodd">
        <g id="parts" transform="translate(-859.000000, -602.000000)">
            <g id="Page-1" transform="translate(859.000000, 602.000000)">
                <g id="Group-3" transform="translate(0.000000, 0.018333)" fill="#6BB0CE">
                    <path d="M39.8510795,19.9908167 C39.8510795,30.9494833 30.9300753,39.8333167 19.9255565,39.8333167 C8.92103766,39.8333167 3.34728033e-05,30.9494833 3.34728033e-05,19.9908167 C3.34728033e-05,9.03215 8.92103766,0.148316667 19.9255565,0.148316667 C30.9300753,0.148316667 39.8510795,9.03215 39.8510795,19.9908167" id="Fill-1"></path>
                </g>
                <path d="M14.9269121,15.8460333 C14.9269121,17.1473667 13.8674979,18.2023667 12.5607197,18.2023667 C11.2539414,18.2023667 10.1945272,17.1473667 10.1945272,15.8460333 C10.1945272,14.5447 11.2539414,13.4897 12.5607197,13.4897 C13.8674979,13.4897 14.9269121,14.5447 14.9269121,15.8460333" id="Fill-4" fill="#FFFFFF"></path>
                <path d="M29.5223766,15.8460333 C29.5223766,17.1473667 28.4629623,18.2023667 27.1561841,18.2023667 C25.8494059,18.2023667 24.7899916,17.1473667 24.7899916,15.8460333 C24.7899916,14.5447 25.8494059,13.4897 27.1561841,13.4897 C28.4629623,13.4897 29.5223766,14.5447 29.5223766,15.8460333" id="Fill-6" fill="#FFFFFF"></path>
                <path d="M31.1348619,32.9070167 C30.5865774,32.9070167 30.0588787,32.6056833 29.7971213,32.0841833 C28.6490042,29.7976833 25.8399665,25.96185 19.9254895,25.96185 C14.0111799,25.96185 11.2019749,29.7976833 10.0540251,32.0841833 C9.68515481,32.81935 8.78741423,33.1170167 8.04900418,32.7495167 C7.31076151,32.3821833 7.01168201,31.4881833 7.38088703,30.7530167 C8.8372887,27.8521833 12.4038159,22.9855167 19.9254895,22.9855167 C27.4471632,22.9855167 31.0136904,27.8521833 32.4702594,30.7530167 C32.8394644,31.4881833 32.5402176,32.3821833 31.8019749,32.7495167 C31.5875816,32.85635 31.3592971,32.9070167 31.1348619,32.9070167" id="Fill-8" fill="#FFFFFF"></path>
            </g>
        </g>
    </g>
</svg>