<?xml version="1.0" encoding="UTF-8"?>
<svg width="40px" height="40px" viewBox="0 0 40 40" version="1.1" xmlns="http://www.w3.org/2000/svg" xmlns:xlink="http://www.w3.org/1999/xlink">
    <!-- Generator: Sketch 42 (36781) - http://www.bohemiancoding.com/sketch -->
    <title>ico_rev_normal</title>
    <desc>Created with Sketch.</desc>
    <defs></defs>
    <g id="App_sp" stroke="none" stroke-width="1" fill="none" fill-rule="evenodd">
        <g id="parts" transform="translate(-803.000000, -602.000000)">
            <g id="Page-1" transform="translate(803.000000, 602.000000)">
                <g id="Group-3" transform="translate(0.000000, 0.018333)" fill="#EFB94B">
                    <path d="M39.8510795,19.9908167 C39.8510795,30.9494833 30.9300753,39.8333167 19.9255565,39.8333167 C8.92103766,39.8333167 3.34728033e-05,30.9494833 3.34728033e-05,19.9908167 C3.34728033e-05,9.03215 8.92103766,0.148316667 19.9255565,0.148316667 C30.9300753,0.148316667 39.8510795,9.03215 39.8510795,19.9908167" id="Fill-1"></path>
                </g>
                <path d="M14.8196151,15.8460333 C14.8196151,17.1473667 13.7602008,18.2023667 12.4534226,18.2023667 C11.1466444,18.2023667 10.0872301,17.1473667 10.0872301,15.8460333 C10.0872301,14.5447 11.1466444,13.4897 12.4534226,13.4897 C13.7602008,13.4897 14.8196151,14.5447 14.8196151,15.8460333" id="Fill-4" fill="#FFFFFF"></path>
                <path d="M29.7637824,15.8460333 C29.7637824,17.1473667 28.7043682,18.2023667 27.39759,18.2023667 C26.0908117,18.2023667 25.0313975,17.1473667 25.0313975,15.8460333 C25.0313975,14.5447 26.0908117,13.4897 27.39759,13.4897 C28.7043682,13.4897 29.7637824,14.5447 29.7637824,15.8460333" id="Fill-6" fill="#FFFFFF"></path>
                <path d="M29.9249372,28.4422167 L9.92610879,28.4422167 C9.18987448,28.4422167 8.59288703,27.7758833 8.59288703,26.95405 C8.59288703,26.1322167 9.18987448,25.4658833 9.92610879,25.4658833 L29.9249372,25.4658833 C30.6611715,25.4658833 31.258159,26.1322167 31.258159,26.95405 C31.258159,27.7758833 30.6611715,28.4422167 29.9249372,28.4422167" id="Fill-8" fill="#FFFFFF"></path>
            </g>
        </g>
    </g>
</svg>